<svg xmlns="http://www.w3.org/2000/svg" viewBox="0 0 48 48"><title>19-thinking</title><g id="_19-thinking" data-name="19-thinking"><path d="M35,48H15a1,1,0,0,1-.949-.684L12.279,42H7a3,3,0,0,1-3-3V33H1a1,1,0,0,1-.857-1.515L4,25.056v-2.61a16.354,16.354,0,0,1,13.864-16.3l.273,1.981A14.347,14.347,0,0,0,6,22.446v2.887a1,1,0,0,1-.143.515L2.766,31H5a1,1,0,0,1,1,1v7a1,1,0,0,0,1,1h6a1,1,0,0,1,.949.684L15.721,46H33.613l-2.229-6.687,1.9-.632,2.668,8A1,1,0,0,1,35,48Z"/><path d="M30,11a3,3,0,0,1-3-3V6a3,3,0,0,1,6,0V8A3,3,0,0,1,30,11Zm0-6a1,1,0,0,0-1,1V8a1,1,0,0,0,2,0V6A1,1,0,0,0,30,5Z"/><rect x="23" y="3" width="2" height="8"/><path d="M42,11a3,3,0,0,1-3-3V6a3,3,0,0,1,6,0V8A3,3,0,0,1,42,11Zm0-6a1,1,0,0,0-1,1V8a1,1,0,0,0,2,0V6A1,1,0,0,0,42,5Z"/><rect x="35" y="3" width="2" height="8"/><path d="M38,21a3,3,0,0,1-3-3V16a3,3,0,0,1,6,0v2A3,3,0,0,1,38,21Zm0-6a1,1,0,0,0-1,1v2a1,1,0,0,0,2,0V16A1,1,0,0,0,38,15Z"/><rect x="43" y="13" width="2" height="8"/><path d="M26,21a3,3,0,0,1-3-3V16a3,3,0,0,1,6,0v2A3,3,0,0,1,26,21Zm0-6a1,1,0,0,0-1,1v2a1,1,0,0,0,2,0V16A1,1,0,0,0,26,15Z"/><rect x="31" y="13" width="2" height="8"/><path d="M42,31a3,3,0,0,1-3-3V26a3,3,0,0,1,6,0v2A3,3,0,0,1,42,31Zm0-6a1,1,0,0,0-1,1v2a1,1,0,0,0,2,0V26A1,1,0,0,0,42,25Z"/><rect x="35" y="23" width="2" height="8"/><path d="M30,31a3,3,0,0,1-3-3V26a3,3,0,0,1,6,0v2A3,3,0,0,1,30,31Zm0-6a1,1,0,0,0-1,1v2a1,1,0,0,0,2,0V26A1,1,0,0,0,30,25Z"/><rect x="23" y="23" width="2" height="8"/><path d="M27,40a.987.987,0,0,1-.383-.076A1,1,0,0,1,26,39V34H23a3,3,0,0,1-3-3V3a3,3,0,0,1,3-3H45a3,3,0,0,1,3,3V31a3,3,0,0,1-3,3H33.414l-5.707,5.707A1,1,0,0,1,27,40ZM23,2a1,1,0,0,0-1,1V31a1,1,0,0,0,1,1h4a1,1,0,0,1,1,1v3.586l4.293-4.293A1,1,0,0,1,33,32H45a1,1,0,0,0,1-1V3a1,1,0,0,0-1-1Z"/><rect x="21" y="42" width="2" height="2"/><rect x="17" y="42" width="2" height="2"/><rect x="17" y="38" width="2" height="2"/><rect x="5" y="35" width="8" height="2"/></g></svg>